<svg width="512" height="512" xmlns="http://www.w3.org/2000/svg" version="1.1" xml:space="preserve">
 <g>
  <title>Layer 1</title>
  <g fill="white" id="svg_1">
   <g id="svg_2">
    <path d="m289.415,260.851c4.466,0 8.084,-3.618 8.084,-8.084c0,-4.466 -3.619,-8.084 -8.084,-8.084l-22.097,0l0,-9.162c0,-4.466 -3.618,-8.084 -8.084,-8.084c-4.465,0 -8.084,3.618 -8.084,8.084l0,9.162l-7.006,0c-10.401,0 -18.863,8.463 -18.863,18.863l0,17.246c0,10.401 8.463,18.863 18.863,18.863l7.006,0l0,22.636l-22.097,0c-4.465,0 -8.084,3.618 -8.084,8.084c0,4.466 3.62,8.084 8.084,8.084l22.097,0l0,9.162c0,4.466 3.62,8.084 8.084,8.084c4.466,0 8.084,-3.618 8.084,-8.084l0,-9.162l7.006,0c10.401,0 18.863,-8.463 18.863,-18.863l0,-17.246c0,-10.401 -8.463,-18.863 -18.863,-18.863l-7.006,0l0,-22.636l22.097,0zm-38.266,22.635l-7.006,0c-1.485,0 -2.695,-1.208 -2.695,-2.695l0,-17.246c0,-1.486 1.209,-2.695 2.695,-2.695l7.006,0l0,22.636zm23.175,16.169c1.486,0 2.695,1.208 2.695,2.695l0,17.246c0,1.486 -1.208,2.695 -2.695,2.695l-7.006,0l0,-22.636l7.006,0z" id="svg_3"/>
   </g>
  </g>
  <g id="svg_4" fill="white">
   <g id="svg_5">
    <path d="m294.804,105.634l-125.036,0c-4.465,0 -8.084,3.619 -8.084,8.084s3.62,8.084 8.084,8.084l125.036,0c4.466,0 8.084,-3.619 8.084,-8.084s-3.618,-8.084 -8.084,-8.084z" id="svg_6"/>
   </g>
  </g>
  <g id="svg_7" fill="white">
   <g id="svg_8">
    <path d="m294.804,64.674l-125.036,0c-4.465,0 -8.084,3.618 -8.084,8.084c0,4.466 3.62,8.084 8.084,8.084l125.036,0c4.466,0 8.084,-3.618 8.084,-8.084c0,-4.466 -3.618,-8.084 -8.084,-8.084z" id="svg_9"/>
   </g>
  </g>
  <g fill="white" id="svg_10">
   <g id="svg_11">
    <path d="m266.779,148.594l-94.855,0c-4.465,0 -8.084,3.618 -8.084,8.084c0,4.466 3.62,8.084 8.084,8.084l94.855,0c4.466,0 8.084,-3.618 8.084,-8.084c0,-4.466 -3.618,-8.084 -8.084,-8.084z" id="svg_12"/>
   </g>
  </g>
  <g fill="white" id="svg_13">
   <g id="svg_14">
    <path d="m342.232,146.594l-49.583,0c-4.466,0 -8.084,3.618 -8.084,8.084c0,4.466 3.618,8.084 8.084,8.084l49.583,0c4.466,0 8.084,-3.618 8.084,-8.084c0,-4.466 -3.619,-8.084 -8.084,-8.084z" id="svg_15"/>
   </g>
  </g>
  <g id="svg_16" fill="white">
   <g id="svg_17">
    <path d="m449.399,254.726c0,0 -54.418,-56.85 -54.89,-57.169l0,-62.277c0,-4.466 -3.618,-8.084 -8.084,-8.084c-4.466,0 -8.084,3.618 -8.084,8.084l0,157.97l-21.78,14.226c0.847,-5.228 1.3,-10.535 1.3,-15.908c0,-54.383 -44.244,-98.627 -98.627,-98.627c-54.383,0 -98.627,44.247 -98.627,98.63c0,7.038 0.73,13.952 2.171,20.7l-24.807,-16.203l0,-279.9l176.056,0l0,56.231c0,4.466 3.618,8.084 8.084,8.084l56.231,0l0,18.144c0,4.466 3.618,8.084 8.084,8.084c4.466,0 8.084,-3.619 8.084,-8.084l0,-26.228c0,-2.144 -0.852,-4.2 -2.367,-5.717l-64.315,-64.315c-1.518,-1.515 -3.574,-2.367 -5.717,-2.367l-192.225,0c-4.465,0 -8.084,3.619 -8.084,8.084l0,186.106c-0.038,0.037 -0.079,0.069 -0.115,0.107l-59.02,60.362c-1.478,1.511 -2.305,3.54 -2.305,5.652l0,137.971c0,4.466 3.62,8.084 8.084,8.084c4.465,0 8.084,-3.619 8.084,-8.084l0,-123.034l337.708,220.584l-337.707,0l0,-56.588c0,-4.466 -3.62,-8.084 -8.084,-8.084c-4.465,0 -8.084,3.618 -8.084,8.084l0,64.673c0,4.466 3.62,8.084 8.084,8.084l375.107,0c4.466,0 8.084,-3.618 8.084,-8.084l0,-243.605c0,-2.081 -0.802,-4.081 -2.239,-5.586zm-119.204,-227.125l36.714,36.714l-36.714,0l0,-36.714zm-208.393,257.905l-40.694,-26.581l40.694,-41.619l0,68.2zm272.707,-64.818l36.479,38.175l-36.479,23.827l0,-62.002zm-210.062,105.737c-0.063,-0.166 -0.123,-0.333 -0.197,-0.497c-4.96,-10.805 -7.475,-22.365 -7.475,-34.358c0,-45.469 36.991,-82.459 82.459,-82.459c45.469,0 82.459,36.99 82.459,82.459c0,10.027 -1.794,19.797 -5.292,29.075l-80.401,52.517l-71.553,-46.737zm251.022,163.962l-164.686,-107.57l164.686,-107.57l0,215.14z" id="svg_18"/>
   </g>
  </g>
  <g id="svg_19"/>
  <g id="svg_20"/>
  <g id="svg_21"/>
  <g id="svg_22"/>
  <g id="svg_23"/>
  <g id="svg_24"/>
  <g id="svg_25"/>
  <g id="svg_26"/>
  <g id="svg_27"/>
  <g id="svg_28"/>
  <g id="svg_29"/>
  <g id="svg_30"/>
  <g id="svg_31"/>
  <g id="svg_32"/>
  <g id="svg_33"/>
 </g>

</svg>